<svg  viewBox="0 0 116 39" fill="none" xmlns="http://www.w3.org/2000/svg">
<path d="M15.48 38.4974C6.37762 38.4974 0.408813 33.8716 0.408813 29.4447C0.408813 27.3556 1.50309 25.9132 3.9901 25.9132C9.36202 25.9629 8.36722 35.2145 15.8282 35.2145C18.7131 35.2145 20.5535 33.6726 20.5535 31.0861C20.5535 21.3868 1.05543 27.5546 1.00569 12.9807C1.00569 6.66376 6.27814 2.2369 14.4852 2.2369C22.7421 2.2369 28.8104 6.61402 28.7606 11.1404C28.7606 13.3289 27.5171 14.7714 24.9804 14.7714C18.9618 14.7714 20.5038 5.47 14.336 5.47C11.2024 5.47 9.7102 7.40986 9.7102 9.84712C9.7102 20.4915 29.1586 14.274 29.1586 28.2012C29.1586 34.7669 22.8416 38.4974 15.48 38.4974Z" fill="#F8F7F3"/>
<path d="M57.3507 32.5286C57.5496 34.8166 59.1413 35.4135 59.1413 36.856V37.0549C59.1413 37.6518 58.6936 38 57.9475 38H48.0493C47.3032 38 46.8555 37.6518 46.8555 37.0549V36.856C46.8555 35.4135 48.7456 34.8166 48.6462 32.5286L48.1488 23.2769C47.9001 18.7506 46.955 16.9102 44.667 16.9102C42.4784 16.9102 41.4339 18.8501 41.4339 21.735V32.5783C41.4339 34.8664 43.6722 35.4135 43.6722 36.856V37.0549C43.6722 37.6518 43.1748 38 42.4784 38H31.6848C30.9884 38 30.5408 37.6518 30.5408 37.0549V36.856C30.5408 35.4135 32.7293 34.8664 32.7293 32.5783V9.49894C32.7293 7.16116 30.2921 6.91246 30.2921 5.51974V5.37052C30.2921 4.77364 30.7397 4.27624 31.4361 3.9778L39.295 0.495997C40.439 -0.00140558 41.1852 0.396515 41.1852 1.54054V15.9651C42.6276 14.4729 44.7167 13.6274 47.2534 13.6274C51.5808 13.6274 56.1569 16.0646 56.704 23.5754L57.3507 32.5286Z" fill="#F8F7F3"/>
<path d="M87.4146 16.4625C87.4146 17.5071 85.2261 18.2034 85.2261 20.9392V32.5783C85.2261 34.8664 87.2157 35.4632 87.2157 36.856V37.0549C87.2157 37.6518 86.768 38 86.1214 38H79.0086C78.2625 38 77.7153 37.5026 77.7153 36.7565V36.3088C76.2729 37.7015 74.0843 38.4974 71.647 38.4974C65.6285 38.4974 59.9084 34.2197 59.9084 26.0624C59.9084 18.6511 65.4295 13.6274 71.6968 13.6274C74.2833 13.6274 76.2729 14.4232 77.7153 15.7164V15.418C77.7153 14.3237 78.6604 13.7766 80.1028 13.9755L86.2209 14.8709C87.0167 14.9703 87.4146 15.5175 87.4146 16.2636V16.4625ZM73.6366 36.0601C75.3278 36.1099 76.82 34.5679 76.82 31.882V22.2821C76.82 18.5516 74.6314 16.0646 72.3434 16.0646C69.9061 16.0646 68.5632 18.2034 68.4139 22.1827C68.2647 26.3608 69.9061 35.9109 73.6366 36.0601Z" fill="#F8F7F3"/>
<path d="M102.564 38.4974C94.9534 38.4974 88.7856 33.2249 88.7856 26.0126C88.7856 18.6511 95.1026 13.6274 102.215 13.6274C109.676 13.6274 115.844 18.8003 115.844 26.1121C115.844 33.3742 109.826 38.4974 102.564 38.4974ZM103.608 36.0601C105.946 36.0601 106.791 33.6726 106.791 29.9421C106.791 26.0624 104.752 16.0646 100.823 16.0646C98.4352 16.0646 97.5896 18.2532 97.5896 22.2821C97.5896 26.3111 99.5792 36.0601 103.608 36.0601Z" fill="#F8F7F3"/>
</svg>
